<!--?xml version="1.0" standalone="no"?-->
              <svg id="sw-js-blob-svg" viewBox="0 0 100 100" xmlns="http://www.w3.org/2000/svg" version="1.1">
                    <defs> 
                        <linearGradient id="sw-gradient" x1="0" x2="1" y1="1" y2="0">
                            <stop id="stop1" stop-color="rgba(33, 150, 243, 1)" offset="0%"></stop>
                            <stop id="stop2" stop-color="rgba(33, 150, 243, 1)" offset="100%"></stop>
                        </linearGradient>
                    </defs>
                <path fill="url(#sw-gradient)" d="M20.2,-35.3C24.2,-32.8,23.8,-23.2,24.9,-16.1C26,-9.1,28.5,-4.5,30.8,1.3C33.1,7.2,35.2,14.4,32.5,18.6C29.8,22.9,22.3,24.3,16.1,26.8C9.9,29.3,4.9,33.1,0,33C-4.9,33,-9.8,29.3,-16.6,27C-23.3,24.8,-31.9,24.1,-36.1,19.8C-40.4,15.6,-40.4,7.8,-40,0.2C-39.7,-7.4,-39.1,-14.8,-35.9,-20.9C-32.7,-27,-26.9,-31.7,-20.5,-32.8C-14,-33.9,-7,-31.3,0.6,-32.3C8.2,-33.3,16.3,-37.8,20.2,-35.3Z" width="100%" height="100%" transform="translate(50 50)" stroke-width="0" style="transition: all 0.3s ease 0s;" stroke="url(#sw-gradient)"></path>
              </svg>