<?xml version="1.0" encoding="UTF-8"?>
<!DOCTYPE svg PUBLIC "-//W3C//DTD SVG 1.1//EN" "http://www.w3.org/Graphics/SVG/1.1/DTD/svg11.dtd">
<svg xmlns="http://www.w3.org/2000/svg" version="1.1" width="360px" height="138px" style="shape-rendering:geometricPrecision; text-rendering:geometricPrecision; image-rendering:optimizeQuality; fill-rule:evenodd; clip-rule:evenodd" xmlns:xlink="http://www.w3.org/1999/xlink">
<g><path style="opacity:0.864" fill="#f13561" d="M 61.5,15.5 C 61.5,16.1667 61.5,16.8333 61.5,17.5C 56.9281,20.5633 52.7615,24.23 49,28.5C 43.8251,34.864 38.6584,41.1973 33.5,47.5C 33.5,48.1667 33.1667,48.5 32.5,48.5C 21.7919,42.9818 10.7919,37.6484 -0.5,32.5C -0.5,25.1667 -0.5,17.8333 -0.5,10.5C 3.08454,7.87616 7.08454,6.04283 11.5,5C 29.3957,2.81457 46.0624,6.31457 61.5,15.5 Z"/></g>
<g><path style="opacity:0.996" fill="#eb708c" d="M 270.5,36.5 C 270.5,36.8333 270.5,37.1667 270.5,37.5C 249.649,48.593 228.316,58.593 206.5,67.5C 205.833,67.5 205.167,67.5 204.5,67.5C 185.487,50.4886 166.153,33.822 146.5,17.5C 146.5,17.1667 146.5,16.8333 146.5,16.5C 174.352,1.45984 202.685,0.626506 231.5,14C 244.854,21.0064 257.854,28.5064 270.5,36.5 Z"/></g>
<g><path style="opacity:0.992" fill="#d91f4b" d="M 61.5,17.5 C 75.0599,24.8762 87.3932,34.0428 98.5,45C 99.5,45.3333 100.5,45.6667 101.5,46C 91.0186,51.2976 79.852,53.7976 68,53.5C 56.1165,53.489 44.6165,51.489 33.5,47.5C 38.6584,41.1973 43.8251,34.864 49,28.5C 52.7615,24.23 56.9281,20.5633 61.5,17.5 Z"/></g>
<g><path style="opacity:1" fill="#d9224c" d="M 146.5,17.5 C 166.153,33.822 185.487,50.4886 204.5,67.5C 166.311,81.0956 132.311,74.2622 102.5,47C 117.712,37.9001 132.379,28.0668 146.5,17.5 Z"/></g>
<g><path style="opacity:0.863" fill="#f13561" d="M 359.5,23.5 C 359.5,28.5 359.5,33.5 359.5,38.5C 352.508,40.4941 345.841,43.3274 339.5,47C 330.124,52.6825 321.124,58.8492 312.5,65.5C 298.836,55.8668 284.836,46.5335 270.5,37.5C 270.5,37.1667 270.5,36.8333 270.5,36.5C 292.044,25.5975 314.877,19.2642 339,17.5C 346.257,18.1876 353.09,20.1876 359.5,23.5 Z"/></g>
<g><path style="opacity:0.999" fill="#f03d66" d="M -0.5,32.5 C 10.7919,37.6484 21.7919,42.9818 32.5,48.5C 21.7324,63.7156 10.7324,78.7156 -0.5,93.5C -0.5,73.1667 -0.5,52.8333 -0.5,32.5 Z"/></g>
<g><path style="opacity:0.999" fill="#f03d66" d="M 270.5,37.5 C 284.836,46.5335 298.836,55.8668 312.5,65.5C 280.937,87.6909 247.937,90.1909 213.5,73C 210.98,71.3029 208.647,69.4695 206.5,67.5C 228.316,58.593 249.649,48.593 270.5,37.5 Z"/></g>
<g><path style="opacity:1" fill="#d81f49" d="M 89.5,-0.5 C 95.8333,-0.5 102.167,-0.5 108.5,-0.5C 122.161,2.83596 134.828,8.50263 146.5,16.5C 146.5,16.8333 146.5,17.1667 146.5,17.5C 132.379,28.0668 117.712,37.9001 102.5,47C 132.311,74.2622 166.311,81.0956 204.5,67.5C 205.167,67.5 205.833,67.5 206.5,67.5C 208.647,69.4695 210.98,71.3029 213.5,73C 247.937,90.1909 280.937,87.6909 312.5,65.5C 321.124,58.8492 330.124,52.6825 339.5,47C 345.841,43.3274 352.508,40.4941 359.5,38.5C 359.5,53.8333 359.5,69.1667 359.5,84.5C 284.578,101.565 209.911,119.232 135.5,137.5C 90.1667,137.5 44.8333,137.5 -0.5,137.5C -0.5,122.833 -0.5,108.167 -0.5,93.5C 10.7324,78.7156 21.7324,63.7156 32.5,48.5C 33.1667,48.5 33.5,48.1667 33.5,47.5C 44.6165,51.489 56.1165,53.489 68,53.5C 79.852,53.7976 91.0186,51.2976 101.5,46C 100.5,45.6667 99.5,45.3333 98.5,45C 87.3932,34.0428 75.0599,24.8762 61.5,17.5C 61.5,16.8333 61.5,16.1667 61.5,15.5C 69.6732,8.0817 79.0065,2.74837 89.5,-0.5 Z"/></g>
<g><path style="opacity:0.992" fill="#d81f4a" d="M 359.5,84.5 C 359.5,102.167 359.5,119.833 359.5,137.5C 284.833,137.5 210.167,137.5 135.5,137.5C 209.911,119.232 284.578,101.565 359.5,84.5 Z"/></g>
</svg>
